<svg width="276" height="42" viewBox="0 0 276 42" fill="none" xmlns="http://www.w3.org/2000/svg">
<path d="M20 2L24.4903 15.8197H39.0211L27.2654 24.3607L31.7557 38.1803L20 29.6393L8.2443 38.1803L12.7346 24.3607L0.97887 15.8197H15.5097L20 2Z" fill="#C7AF00"/>
<path d="M79 0L83.4903 13.8197H98.0211L86.2654 22.3607L90.7557 36.1803L79 27.6393L67.2443 36.1803L71.7346 22.3607L59.9789 13.8197H74.5097L79 0Z" fill="#C7AF00"/>
<path d="M138 0L142.49 13.8197H157.021L145.265 22.3607L149.756 36.1803L138 27.6393L126.244 36.1803L130.735 22.3607L118.979 13.8197H133.51L138 0Z" fill="#C7AF00"/>
<path d="M197 2L201.49 15.8197H216.021L204.265 24.3607L208.756 38.1803L197 29.6393L185.244 38.1803L189.735 24.3607L177.979 15.8197H192.51L197 2Z" fill="#C7AF00"/>
<path d="M256 2L260.49 15.8197H275.021L263.265 24.3607L267.756 38.1803L256 29.6393L244.244 38.1803L248.735 24.3607L236.979 15.8197H251.51L256 2Z" fill="black"/>
</svg>
